<svg width="34" height="32" viewBox="0 0 34 32" fill="none" xmlns="http://www.w3.org/2000/svg">
<path fill-rule="evenodd" clip-rule="evenodd" d="M16.8266 0C12.9099 0.00203215 9.12164 1.38925 6.13918 3.91361C3.15672 6.43796 1.17456 9.93484 0.547128 13.779C-0.0803071 17.6231 0.68789 21.5638 2.71438 24.8964C4.74086 28.2291 7.89348 30.7363 11.6085 31.9699C12.4281 32.122 12.7368 31.614 12.7368 31.1821C12.7368 30.7502 12.7204 29.4979 12.715 28.1288C8.12522 29.1203 7.15537 26.192 7.15537 26.192C6.40681 24.2905 5.32494 23.7906 5.32494 23.7906C3.82781 22.7747 5.43696 22.7937 5.43696 22.7937C7.09527 22.9105 7.96678 24.4861 7.96678 24.4861C9.43659 26.9933 11.8271 26.2681 12.7669 25.8443C12.9144 24.7822 13.3433 24.0596 13.816 23.6494C10.1496 23.2365 6.29752 21.8294 6.29752 15.5435C6.2748 13.9133 6.8832 12.3368 7.99683 11.1402C7.82745 10.7273 7.26191 9.05936 8.15801 6.79384C8.15801 6.79384 9.54314 6.35377 12.6958 8.47532C15.4 7.74002 18.2532 7.74002 20.9574 8.47532C24.1074 6.35377 25.4897 6.79384 25.4897 6.79384C26.3886 9.05392 25.823 10.7218 25.6537 11.1402C26.7708 12.337 27.3805 13.9163 27.3557 15.5489C27.3557 21.8484 23.4954 23.2365 19.8236 23.6412C20.4137 24.1519 20.941 25.1489 20.941 26.681C20.941 28.8758 20.9219 30.6415 20.9219 31.1821C20.9219 31.6195 21.2196 32.1301 22.0556 31.9699C25.7711 30.7362 28.924 28.2285 30.9505 24.8953C32.9769 21.5621 33.7447 17.6208 33.1166 13.7763C32.4884 9.93181 30.5053 6.43489 27.5218 3.91097C24.5384 1.38705 20.7492 0.000744073 16.8321 0H16.8266Z" fill="white"/>
</svg>
