<svg width="32" height="32" viewBox="0 0 32 32" fill="none" xmlns="http://www.w3.org/2000/svg">
<path d="M16.0001 2.6665C8.64813 2.6665 2.66675 8.64789 2.66675 15.9998C2.66675 23.3518 8.64813 29.3332 16.0001 29.3332C23.352 29.3332 29.3334 23.3518 29.3334 15.9998C29.3334 8.64789 23.352 2.6665 16.0001 2.6665ZM16.0001 4.6665C22.2712 4.6665 27.3334 9.72876 27.3334 15.9998C27.3334 22.2709 22.2712 27.3332 16.0001 27.3332C9.729 27.3332 4.66675 22.2709 4.66675 15.9998C4.66675 9.72876 9.729 4.6665 16.0001 4.6665ZM16.0001 9.33317C15.6465 9.33317 15.3073 9.47365 15.0573 9.72369C14.8072 9.97374 14.6667 10.3129 14.6667 10.6665C14.6667 11.0201 14.8072 11.3593 15.0573 11.6093C15.3073 11.8594 15.6465 11.9998 16.0001 11.9998C16.3537 11.9998 16.6928 11.8594 16.9429 11.6093C17.1929 11.3593 17.3334 11.0201 17.3334 10.6665C17.3334 10.3129 17.1929 9.97374 16.9429 9.72369C16.6928 9.47365 16.3537 9.33317 16.0001 9.33317ZM15.9845 13.9855C15.7195 13.9897 15.467 14.0988 15.2824 14.289C15.0978 14.4792 14.9963 14.7348 15.0001 14.9998V22.3332C14.9982 22.4657 15.0227 22.5972 15.0721 22.7202C15.1215 22.8432 15.1949 22.9551 15.2879 23.0495C15.381 23.1438 15.4918 23.2188 15.6141 23.2699C15.7364 23.3211 15.8676 23.3474 16.0001 23.3474C16.1326 23.3474 16.2638 23.3211 16.3861 23.2699C16.5083 23.2188 16.6192 23.1438 16.7122 23.0495C16.8053 22.9551 16.8786 22.8432 16.9281 22.7202C16.9775 22.5972 17.002 22.4657 17.0001 22.3332V14.9998C17.002 14.866 16.977 14.7331 16.9267 14.6091C16.8763 14.4851 16.8015 14.3725 16.7068 14.2779C16.6121 14.1833 16.4994 14.1087 16.3753 14.0584C16.2512 14.0082 16.1183 13.9834 15.9845 13.9855Z" fill="#8692A6"/>
</svg>
