<svg width="21" height="21" viewBox="0 0 21 21" fill="none" xmlns="http://www.w3.org/2000/svg">
<g clip-path="url(#clip0_1162_6242)">
<path d="M10.4404 4.56543C5.72388 4.56543 1.56812 7.83456 0.465619 12.1183C0.424395 12.2789 0.448649 12.4493 0.533047 12.592C0.617444 12.7347 0.755071 12.838 0.915652 12.8792C1.07623 12.9205 1.24661 12.8962 1.38931 12.8118C1.53201 12.7274 1.63533 12.5898 1.67656 12.4292C2.62656 8.73796 6.3069 5.81543 10.4404 5.81543C14.5739 5.81543 18.2659 8.73899 19.2156 12.4292C19.2568 12.5898 19.3602 12.7274 19.5029 12.8118C19.6456 12.8962 19.8159 12.9205 19.9765 12.8792C20.1371 12.838 20.2747 12.7347 20.3591 12.592C20.4435 12.4493 20.4678 12.2789 20.4266 12.1183C19.3238 7.83353 15.1569 4.56543 10.4404 4.56543ZM10.4469 7.89876C8.23021 7.89876 6.42021 9.70876 6.42021 11.9255C6.42021 14.1421 8.23021 15.953 10.4469 15.953C12.6636 15.953 14.4744 14.1421 14.4744 11.9255C14.4744 9.70876 12.6636 7.89876 10.4469 7.89876ZM10.4469 9.14876C11.988 9.14876 13.2244 10.3843 13.2244 11.9255C13.2244 13.4666 11.988 14.703 10.4469 14.703C8.90576 14.703 7.67021 13.4666 7.67021 11.9255C7.67021 10.3843 8.90576 9.14876 10.4469 9.14876Z" fill="black"/>
</g>
<defs>
<clipPath id="clip0_1162_6242">
<rect width="20" height="20" fill="white" transform="translate(0.446106 0.81543)"/>
</clipPath>
</defs>
</svg>
