<svg width="25" height="24" viewBox="0 0 25 24" fill="none" xmlns="http://www.w3.org/2000/svg">
<path d="M10.6781 0.914062C8.15825 0.914062 6.10079 2.96888 6.10079 5.48549C6.10079 8.0021 8.15825 10.0569 10.6781 10.0569C13.1979 10.0569 15.2554 8.0021 15.2554 5.48549C15.2554 2.96888 13.1979 0.914062 10.6781 0.914062ZM10.6781 2.28549C12.4558 2.28549 13.8822 3.71006 13.8822 5.48549C13.8822 7.26093 12.4558 8.68549 10.6781 8.68549C8.90037 8.68549 7.47398 7.26093 7.47398 5.48549C7.47398 3.71006 8.90037 2.28549 10.6781 2.28549ZM18.9172 10.9712C16.1365 10.9712 13.8822 13.2226 13.8822 15.9998C13.8822 18.7769 16.1365 21.0283 18.9172 21.0283C21.6979 21.0283 23.9522 18.7769 23.9522 15.9998C23.9522 13.2226 21.6979 10.9712 18.9172 10.9712ZM5.74498 11.8855C4.80572 11.8855 4.04102 12.7013 4.04102 13.7042V14.3998C4.04102 15.8997 4.81704 17.2031 6.22685 18.0694C7.41282 18.7986 8.99364 19.1998 10.6781 19.1998C11.6805 19.1998 12.7065 19.0516 13.6435 18.7471C13.4329 18.3444 13.2707 17.9135 13.1563 17.4632C12.3795 17.7073 11.5189 17.8283 10.6781 17.8283C8.14272 17.8283 5.4142 16.7554 5.4142 14.3998V13.7042C5.4142 13.4615 5.56601 13.2569 5.74498 13.2569H13.6417C13.9049 12.7527 14.2387 12.2919 14.6296 11.8855H5.74498ZM18.9172 12.3426C19.1699 12.3426 19.3749 12.5474 19.3749 12.7998V15.5426H22.1213C22.374 15.5426 22.579 15.7474 22.579 15.9998C22.579 16.2521 22.374 16.4569 22.1213 16.4569H19.3749V19.1998C19.3749 19.4521 19.1699 19.6569 18.9172 19.6569C18.6645 19.6569 18.4595 19.4521 18.4595 19.1998V16.4569H15.7131C15.4604 16.4569 15.2554 16.2521 15.2554 15.9998C15.2554 15.7474 15.4604 15.5426 15.7131 15.5426H18.4595V12.7998C18.4595 12.5474 18.6645 12.3426 18.9172 12.3426Z" fill="white"/>
</svg>
