<svg width="32" height="32" viewBox="0 0 32 32" fill="none" xmlns="http://www.w3.org/2000/svg">
<path d="M12.694 2.6759C12.2552 2.64397 11.8055 2.68882 11.3646 2.81912L9.78646 3.28657C8.10482 3.78391 6.79089 5.11816 6.34635 6.8022C5.3593 10.5474 6.48845 14.9803 9.42708 19.9702C12.3616 24.9531 15.7053 28.1201 19.4818 29.1538C21.1824 29.6192 23.0165 29.1746 24.3047 27.978L25.5052 26.8647C26.8485 25.6174 27.0488 23.54 25.9635 22.0639L24.2292 19.7084C23.2995 18.4457 21.6606 17.9081 20.1536 18.3608L17.4401 19.1733C17.3262 19.2066 17.0536 19.0514 16.8164 18.8465L16.8151 18.8452C16.3926 18.4778 15.8072 17.7353 15.181 16.6733V16.672C14.5095 15.5315 14.2231 14.7856 14.1081 14.3452C13.993 13.9045 14.0209 13.8509 14.0378 13.7019C14.0465 13.6276 14.0818 13.5587 14.1419 13.504L14.1432 13.5027L16.1667 11.6525C17.3259 10.5927 17.6759 8.89912 17.0221 7.47407L15.8021 4.81261V4.81131C15.2277 3.55925 14.0102 2.77164 12.694 2.6759ZM12.5495 4.67069C13.1616 4.71642 13.7253 5.08359 13.9831 5.64595L15.2044 8.30741C15.5 8.95169 15.3518 9.68896 14.8177 10.1772L12.7943 12.0262C12.3795 12.4044 12.1142 12.92 12.0508 13.4767V13.478C12.0343 13.6244 11.9952 14.1687 12.1732 14.8504C12.3511 15.532 12.7185 16.4337 13.457 17.6876H13.4583C14.1474 18.8563 14.7986 19.7441 15.5039 20.3569H15.5052C15.7342 20.5552 16.6942 21.4752 18 21.0939L18.0039 21.0926L20.7292 20.2762C21.4368 20.0636 22.1935 20.3174 22.6185 20.8946L24.3529 23.2501C24.844 23.9192 24.7582 24.8288 24.1445 25.3986L22.944 26.5131C22.1762 27.2266 21.0361 27.5052 20.0091 27.2241C16.9562 26.3884 13.9352 23.6835 11.151 18.9558C8.36301 14.2217 7.491 10.3061 8.27995 7.31261C8.54074 6.32465 9.3398 5.50454 10.3542 5.20454L11.931 4.73709C12.1364 4.67639 12.3454 4.65544 12.5495 4.67069Z" fill="#8692A6"/>
</svg>
