<svg width="25" height="24" viewBox="0 0 25 24" fill="none" xmlns="http://www.w3.org/2000/svg">
<path d="M18.0785 2.5C16.1519 2.5 14.574 4.07589 14.574 6C14.574 6.29288 14.6734 6.55473 14.7422 6.82715L8.73935 9.82617C8.09524 9.03697 7.15523 8.5 6.06308 8.5C4.1365 8.5 2.55859 10.0759 2.55859 12C2.55859 13.9241 4.1365 15.5 6.06308 15.5C7.15523 15.5 8.09524 14.963 8.73935 14.1738L14.7422 17.1729C14.6734 17.4453 14.574 17.7071 14.574 18C14.574 19.9241 16.1519 21.5 18.0785 21.5C20.005 21.5 21.5829 19.9241 21.5829 18C21.5829 16.0759 20.005 14.5 18.0785 14.5C16.9863 14.5 16.0463 15.037 15.4022 15.8262L9.39938 12.8271C9.46816 12.5547 9.56756 12.2929 9.56756 12C9.56756 11.7071 9.46816 11.4453 9.39938 11.1729L15.4022 8.17383C16.0463 8.96303 16.9863 9.5 18.0785 9.5C20.005 9.5 21.5829 7.92411 21.5829 6C21.5829 4.07589 20.005 2.5 18.0785 2.5ZM18.0785 4C19.1933 4 20.081 4.88655 20.081 6C20.081 7.11345 19.1933 8 18.0785 8C16.9636 8 16.0759 7.11345 16.0759 6C16.0759 4.88655 16.9636 4 18.0785 4ZM6.06308 10C7.17796 10 8.06564 10.8865 8.06564 12C8.06564 13.1135 7.17796 14 6.06308 14C4.9482 14 4.06052 13.1135 4.06052 12C4.06052 10.8865 4.9482 10 6.06308 10ZM18.0785 16C19.1933 16 20.081 16.8865 20.081 18C20.081 19.1135 19.1933 20 18.0785 20C16.9636 20 16.0759 19.1135 16.0759 18C16.0759 16.8865 16.9636 16 18.0785 16Z" fill="white"/>
</svg>
