<svg width="20" height="21" viewBox="0 0 20 21" fill="none" xmlns="http://www.w3.org/2000/svg">
<path d="M8.95833 1.3692C8.87551 1.36803 8.79329 1.38333 8.71643 1.41422C8.63958 1.4451 8.56963 1.49095 8.51064 1.5491C8.45166 1.60726 8.40483 1.67655 8.37286 1.75296C8.34089 1.82937 8.32443 1.91137 8.32443 1.9942C8.32443 2.07703 8.34089 2.15903 8.37286 2.23544C8.40483 2.31186 8.45166 2.38115 8.51064 2.4393C8.56963 2.49746 8.63958 2.54331 8.71643 2.57419C8.79329 2.60507 8.87551 2.62037 8.95833 2.6192H9.375V3.48427C5.53208 3.80367 2.5 7.02871 2.5 10.9525C2.5 15.0873 5.86527 18.4525 10 18.4525C14.1347 18.4525 17.5 15.0873 17.5 10.9525C17.5 9.10971 16.829 7.42261 15.7218 6.1153L16.4819 5.35439C16.5721 5.26658 16.6337 5.15359 16.6585 5.03021C16.6834 4.90683 16.6705 4.77882 16.6214 4.66291C16.5724 4.54701 16.4894 4.44862 16.3835 4.38062C16.2776 4.31262 16.1536 4.27818 16.0278 4.2818C15.8655 4.28653 15.7114 4.35424 15.5981 4.4706L14.8372 5.23069C13.6795 4.25025 12.2233 3.61711 10.625 3.48427V2.6192H11.0417C11.1245 2.62037 11.2067 2.60507 11.2836 2.57419C11.3604 2.54331 11.4304 2.49746 11.4894 2.4393C11.5483 2.38115 11.5952 2.31186 11.6271 2.23544C11.6591 2.15903 11.6756 2.07703 11.6756 1.9942C11.6756 1.91137 11.6591 1.82937 11.6271 1.75296C11.5952 1.67655 11.5483 1.60726 11.4894 1.5491C11.4304 1.49095 11.3604 1.4451 11.2836 1.41422C11.2067 1.38333 11.1245 1.36803 11.0417 1.3692H8.95833ZM9.92594 4.70661C9.97621 4.71274 10.027 4.71274 10.0773 4.70661C11.7584 4.72707 13.2763 5.40468 14.3864 6.49778C14.4067 6.52137 14.4287 6.5434 14.4523 6.5637C15.5638 7.69122 16.25 9.23916 16.25 10.9525C16.25 14.4117 13.4592 17.2025 10 17.2025C6.54081 17.2025 3.75 14.4117 3.75 10.9525C3.75 7.51836 6.50147 4.74655 9.92594 4.70661ZM12.6961 7.61351C12.5338 7.61824 12.3797 7.68595 12.2664 7.80231L10.3223 9.74648C10.2172 9.71786 10.1089 9.70309 10 9.70254C9.66848 9.70254 9.35054 9.83423 9.11612 10.0687C8.8817 10.3031 8.75 10.621 8.75 10.9525C8.75 11.2841 8.8817 11.602 9.11612 11.8364C9.35054 12.0708 9.66848 12.2025 10 12.2025C10.1916 12.2024 10.3807 12.1583 10.5525 12.0735C10.7244 11.9886 10.8744 11.8655 10.9911 11.7134C11.1077 11.5614 11.1879 11.3845 11.2253 11.1966C11.2627 11.0086 11.2564 10.8146 11.2069 10.6295L13.1502 8.6861C13.2404 8.59828 13.302 8.48529 13.3268 8.36192C13.3517 8.23854 13.3388 8.11052 13.2897 7.99462C13.2407 7.87871 13.1577 7.78032 13.0518 7.71232C12.9459 7.64432 12.8219 7.60988 12.6961 7.61351Z" fill="white"/>
</svg>
