<svg width="21" height="21" viewBox="0 0 21 21" fill="none" xmlns="http://www.w3.org/2000/svg">
<path d="M6.98771 2.89844C5.38428 2.89844 4.07104 4.21168 4.07104 5.8151C4.07104 7.41853 5.38428 8.73177 6.98771 8.73177C8.59114 8.73177 9.90438 7.41853 9.90438 5.8151C9.90438 4.21168 8.59114 2.89844 6.98771 2.89844ZM13.6544 2.89844C12.051 2.89844 10.7377 4.21168 10.7377 5.8151C10.7377 7.41853 12.051 8.73177 13.6544 8.73177C15.2578 8.73177 16.571 7.41853 16.571 5.8151C16.571 4.21168 15.2578 2.89844 13.6544 2.89844ZM6.98771 4.14844C7.91559 4.14844 8.65438 4.88723 8.65438 5.8151C8.65438 6.74298 7.91559 7.48177 6.98771 7.48177C6.05983 7.48177 5.32104 6.74298 5.32104 5.8151C5.32104 4.88723 6.05983 4.14844 6.98771 4.14844ZM13.6544 4.14844C14.5823 4.14844 15.321 4.88723 15.321 5.8151C15.321 6.74298 14.5823 7.48177 13.6544 7.48177C12.7265 7.48177 11.9877 6.74298 11.9877 5.8151C11.9877 4.88723 12.7265 4.14844 13.6544 4.14844ZM4.27938 9.5651C3.47521 9.5651 2.82104 10.2193 2.82104 11.0234V14.9818C2.82104 17.2793 4.69021 19.1484 6.98771 19.1484C8.04688 19.1484 9.01229 18.7483 9.74813 18.0946C9.48313 17.7625 9.25946 17.3962 9.08488 17.0033C8.55405 17.5541 7.81104 17.8984 6.98771 17.8984C5.37938 17.8984 4.07104 16.5901 4.07104 14.9818V11.0234C4.07104 10.9084 4.16438 10.8151 4.27938 10.8151H8.66496C8.70787 10.343 8.89303 9.91135 9.17928 9.5651H4.27938ZM10.946 9.5651C10.1481 9.5651 9.48771 10.2255 9.48771 11.0234V14.9818C9.48771 17.2754 11.3607 19.1484 13.6544 19.1484C15.9481 19.1484 17.821 17.2754 17.821 14.9818V11.0234C17.821 10.2255 17.1606 9.5651 16.3627 9.5651H10.946ZM10.946 10.8151H16.3627C16.4856 10.8151 16.571 10.9005 16.571 11.0234V14.9818C16.571 16.5998 15.2724 17.8984 13.6544 17.8984C12.0364 17.8984 10.7377 16.5998 10.7377 14.9818V11.0234C10.7377 10.9005 10.8231 10.8151 10.946 10.8151Z" fill="black"/>
</svg>
