<svg width="24" height="24" viewBox="0 0 24 24" fill="none" xmlns="http://www.w3.org/2000/svg">
<path d="M7.49997 4.00195C7.38746 4.00189 7.27638 4.02713 7.17496 4.07582C7.07353 4.1245 6.98435 4.19538 6.91403 4.2832L1.91403 10.5312C1.80075 10.6728 1.74259 10.8506 1.75031 11.0318C1.75803 11.213 1.83111 11.3852 1.95603 11.5166L11.456 21.5166C11.5261 21.5904 11.6105 21.6492 11.704 21.6893C11.7975 21.7295 11.8982 21.7502 12 21.7502C12.1017 21.7502 12.2025 21.7295 12.296 21.6893C12.3895 21.6492 12.4738 21.5904 12.5439 21.5166L22.0439 11.5166C22.1688 11.3852 22.2419 11.213 22.2496 11.0318C22.2573 10.8506 22.1992 10.6728 22.0859 10.5312L17.0859 4.2832C17.0156 4.19538 16.9264 4.1245 16.825 4.07582C16.7236 4.02713 16.6125 4.00189 16.5 4.00195H7.49997ZM7.8613 5.50195H10.707L7.39353 10.0586C7.3499 10.117 7.31503 10.1815 7.29001 10.25H4.06052L7.8613 5.50195ZM13.2929 5.50195H16.1396L19.9394 10.25H16.7099C16.6849 10.1815 16.65 10.117 16.6064 10.0586L13.2929 5.50195ZM12 6.27539L14.8906 10.25H9.10935L12 6.27539ZM4.24704 11.75H7.59958L10.1474 17.9609L4.24704 11.75ZM9.22165 11.75H14.7783L12 18.5234L9.22165 11.75ZM16.4004 11.75H19.7529L13.8525 17.9609L16.4004 11.75Z" fill="white"/>
</svg>
