<svg width="20" height="20" viewBox="0 0 20 20" fill="none" xmlns="http://www.w3.org/2000/svg">
<path d="M16.4527 2.9074C16.2877 2.9113 16.1309 2.98034 16.0165 3.09946L10.0001 9.1159L3.98366 3.09946C3.9254 3.03946 3.8557 2.99177 3.77868 2.9592C3.70165 2.92663 3.61888 2.90985 3.53525 2.90984C3.41087 2.90987 3.28932 2.94701 3.18617 3.01651C3.08301 3.08601 3.00293 3.1847 2.95618 3.29996C2.90943 3.41523 2.89813 3.54182 2.92372 3.66354C2.94932 3.78526 3.01065 3.89658 3.09987 3.98325L9.11631 9.99969L3.09987 16.0161C3.03989 16.0737 2.992 16.1427 2.95901 16.219C2.92602 16.2954 2.90859 16.3775 2.90775 16.4607C2.9069 16.5438 2.92266 16.6263 2.95409 16.7033C2.98552 16.7803 3.03199 16.8502 3.09079 16.909C3.14959 16.9678 3.21953 17.0143 3.29651 17.0457C3.3735 17.0771 3.45598 17.0929 3.53913 17.092C3.62228 17.0912 3.70443 17.0738 3.78076 17.0408C3.85709 17.0078 3.92607 16.9599 3.98366 16.8999L10.0001 10.8835L16.0165 16.8999C16.0741 16.9599 16.1431 17.0078 16.2194 17.0408C16.2958 17.0738 16.3779 17.0912 16.4611 17.092C16.5442 17.0929 16.6267 17.0771 16.7037 17.0457C16.7807 17.0143 16.8506 16.9678 16.9094 16.909C16.9682 16.8502 17.0147 16.7803 17.0461 16.7033C17.0775 16.6263 17.0933 16.5438 17.0924 16.4607C17.0916 16.3775 17.0742 16.2954 17.0412 16.219C17.0082 16.1427 16.9603 16.0737 16.9003 16.0161L10.8839 9.99969L16.9003 3.98325C16.9912 3.89601 17.0536 3.78335 17.0794 3.66004C17.1051 3.53672 17.093 3.4085 17.0446 3.29219C16.9962 3.17588 16.9138 3.0769 16.8082 3.00824C16.7026 2.93957 16.5787 2.90443 16.4527 2.9074Z" fill="black"/>
</svg>
