<svg width="29" height="30" viewBox="0 0 29 30" fill="none" xmlns="http://www.w3.org/2000/svg">
<g clip-path="url(#clip0_1162_6227)">
<path d="M20.4986 8.8199C20.4502 8.76984 20.3938 8.72822 20.3317 8.69675C18.579 7.80866 16.4579 8.13161 15.0814 9.50813L12.7468 11.8427C12.7223 11.8401 12.6977 11.839 12.6731 11.8393L9.44661 11.8387C8.35935 11.8387 7.46478 12.7333 7.46478 13.8205C7.46478 14.4823 7.79674 15.103 8.34808 15.4703L9.00582 15.9094C8.8444 16.425 8.89889 16.9945 9.18363 17.4625C8.90547 17.5577 8.64362 17.7136 8.42059 17.9367C8.00874 18.3485 7.89713 18.8492 7.77782 19.3609C7.6585 19.8726 7.59207 20.3896 7.5557 20.7305C7.49481 21.3014 8.00325 21.8086 8.57308 21.7478C8.91432 21.7115 9.43156 21.6445 9.94322 21.5251C10.4549 21.4058 10.9551 21.2947 11.3669 20.883C11.5887 20.6611 11.7421 20.3987 11.8416 20.1205C12.3095 20.4049 12.8788 20.4591 13.3942 20.2977L13.8338 20.956C14.2011 21.507 14.8215 21.8388 15.483 21.8388C16.5703 21.8388 17.4649 20.9442 17.4649 19.8569L17.4643 16.6304C17.4646 16.6058 17.4634 16.5812 17.4608 16.5568L19.7954 14.2222C21.1719 12.8457 21.4949 10.7245 20.6068 8.97182C20.5785 8.91605 20.5421 8.86484 20.4986 8.8199ZM19.5589 9.74464C20.088 10.9832 19.8526 12.3972 18.9115 13.3383L13.2727 18.9771C13.0233 19.2265 12.6383 19.2265 12.3889 18.9771L11.4739 18.0621L11.4681 18.0552L10.8259 17.413L10.8254 17.4136L10.3265 16.9147C10.0771 16.6653 10.0771 16.2802 10.3265 16.0308L15.9652 10.392C16.9063 9.45093 18.3203 9.21558 19.5589 9.74464ZM17.5448 11.7587C17.3886 11.6024 17.1766 11.5146 16.9556 11.5146C16.7346 11.5146 16.5226 11.6024 16.3663 11.7587C16.2101 11.915 16.1223 12.1269 16.1223 12.348C16.1223 12.569 16.2101 12.7809 16.3663 12.9372C16.5226 13.0935 16.7346 13.1813 16.9556 13.1813C17.1766 13.1813 17.3886 13.0935 17.5448 12.9372C17.7011 12.7809 17.7889 12.569 17.7889 12.348C17.7889 12.1269 17.7011 11.915 17.5448 11.7587ZM11.5004 13.0891L9.71189 14.8776L9.04092 14.4299C8.83683 14.294 8.71522 14.0668 8.71522 13.8211C8.71522 13.4093 9.03537 13.0891 9.44718 13.0891L11.5004 13.0891ZM16.2144 17.8032V19.8564C16.2144 20.2682 15.8943 20.5883 15.4825 20.5883C15.2368 20.5883 15.0096 20.4667 14.8736 20.2626L14.4259 19.5917L16.2144 17.8032ZM10.4168 18.7728L10.5307 18.8867C10.8035 19.2185 10.793 19.6891 10.483 19.9991C10.4696 20.0125 10.0875 20.2083 9.65952 20.3081C9.38148 20.3729 9.12891 20.4 8.86771 20.4358C8.90359 20.1747 8.93006 19.9226 8.99488 19.6446C9.0947 19.2165 9.29118 18.8339 9.30447 18.8206C9.61448 18.5105 10.0851 18.5 10.4168 18.7728Z" fill="black"/>
</g>
<defs>
<clipPath id="clip0_1162_6227">
<rect width="20" height="20" fill="white" transform="translate(14.304 0.857422) rotate(45)"/>
</clipPath>
</defs>
</svg>
