<svg width="20" height="20" viewBox="0 0 20 20" fill="none" xmlns="http://www.w3.org/2000/svg">
<path d="M5.2085 1.66699C4.18037 1.66699 3.3335 2.51387 3.3335 3.54199V16.4587C3.3335 17.4868 4.18037 18.3337 5.2085 18.3337H14.7918C15.82 18.3337 16.6668 17.4868 16.6668 16.4587V7.70866C16.6668 7.54291 16.6009 7.38396 16.4837 7.26676L16.4772 7.26025L11.0671 1.8501C10.9499 1.73289 10.7909 1.66702 10.6252 1.66699H5.2085ZM5.2085 2.91699H10.0002V6.45866C10.0002 7.48678 10.847 8.33366 11.8752 8.33366H15.4168V16.4587C15.4168 16.8114 15.1445 17.0837 14.7918 17.0837H5.2085C4.85579 17.0837 4.5835 16.8114 4.5835 16.4587V3.54199C4.5835 3.18928 4.85579 2.91699 5.2085 2.91699ZM11.2502 3.80078L14.533 7.08366H11.8752C11.5225 7.08366 11.2502 6.81137 11.2502 6.45866V3.80078ZM9.99121 8.75033C9.82857 8.7527 9.67326 8.81839 9.55827 8.93343L7.8916 10.6001C7.83162 10.6577 7.78373 10.7267 7.75074 10.803C7.71775 10.8793 7.70033 10.9615 7.69948 11.0446C7.69863 11.1278 7.71439 11.2103 7.74582 11.2872C7.77725 11.3642 7.82373 11.4342 7.88252 11.493C7.94132 11.5518 8.01126 11.5982 8.08825 11.6297C8.16523 11.6611 8.24771 11.6769 8.33086 11.676C8.41401 11.6752 8.49616 11.6577 8.57249 11.6247C8.64882 11.5918 8.7178 11.5439 8.77539 11.4839L9.37516 10.8841V13.1253C9.37399 13.2081 9.38929 13.2904 9.42018 13.3672C9.45106 13.4441 9.49691 13.514 9.55506 13.573C9.61322 13.632 9.68251 13.6788 9.75892 13.7108C9.83533 13.7428 9.91733 13.7592 10.0002 13.7592C10.083 13.7592 10.165 13.7428 10.2414 13.7108C10.3178 13.6788 10.3871 13.632 10.4453 13.573C10.5034 13.514 10.5493 13.4441 10.5801 13.3672C10.611 13.2904 10.6263 13.2081 10.6252 13.1253V10.8841L11.2249 11.4839C11.2825 11.5439 11.3515 11.5918 11.4278 11.6247C11.5042 11.6577 11.5863 11.6752 11.6695 11.676C11.7526 11.6769 11.8351 11.6611 11.9121 11.6297C11.9891 11.5982 12.059 11.5518 12.1178 11.493C12.1766 11.4342 12.2231 11.3642 12.2545 11.2872C12.2859 11.2103 12.3017 11.1278 12.3008 11.0446C12.3 10.9615 12.2826 10.8793 12.2496 10.803C12.2166 10.7267 12.1687 10.6577 12.1087 10.6001L10.4421 8.93343C10.383 8.87432 10.3126 8.82766 10.2352 8.7962C10.1577 8.76475 10.0748 8.74915 9.99121 8.75033ZM7.29183 14.5837C7.20901 14.5825 7.12678 14.5978 7.04993 14.6287C6.97307 14.6596 6.90312 14.7054 6.84414 14.7636C6.78516 14.8217 6.73832 14.891 6.70636 14.9674C6.67439 15.0438 6.65793 15.1258 6.65793 15.2087C6.65793 15.2915 6.67439 15.3735 6.70636 15.4499C6.73832 15.5263 6.78516 15.5956 6.84414 15.6538C6.90312 15.7119 6.97307 15.7578 7.04993 15.7886C7.12678 15.8195 7.20901 15.8348 7.29183 15.8337H12.7085C12.7913 15.8348 12.8735 15.8195 12.9504 15.7886C13.0273 15.7578 13.0972 15.7119 13.1562 15.6538C13.2152 15.5956 13.262 15.5263 13.294 15.4499C13.3259 15.3735 13.3424 15.2915 13.3424 15.2087C13.3424 15.1258 13.3259 15.0438 13.294 14.9674C13.262 14.891 13.2152 14.8217 13.1562 14.7636C13.0972 14.7054 13.0273 14.6596 12.9504 14.6287C12.8735 14.5978 12.7913 14.5825 12.7085 14.5837H7.29183Z" fill="#1565D8"/>
</svg>
