<svg width="21" height="21" viewBox="0 0 21 21" fill="none" xmlns="http://www.w3.org/2000/svg">
<path d="M10.4461 2.89844C8.84266 2.89844 7.52942 4.21168 7.52942 5.8151C7.52942 7.41853 8.84266 8.73177 10.4461 8.73177C12.0495 8.73177 13.3628 7.41853 13.3628 5.8151C13.3628 4.21168 12.0495 2.89844 10.4461 2.89844ZM10.4461 4.14844C11.374 4.14844 12.1128 4.88723 12.1128 5.8151C12.1128 6.74298 11.374 7.48177 10.4461 7.48177C9.51821 7.48177 8.77942 6.74298 8.77942 5.8151C8.77942 4.88723 9.51821 4.14844 10.4461 4.14844ZM7.73775 9.5651C6.93985 9.5651 6.27942 10.2255 6.27942 11.0234V14.9818C6.27942 17.2754 8.15241 19.1484 10.4461 19.1484C12.7398 19.1484 14.6128 17.2754 14.6128 14.9818V11.0234C14.6128 10.2255 13.9523 9.5651 13.1544 9.5651H7.73775ZM7.73775 10.8151H13.1544C13.2774 10.8151 13.3628 10.9005 13.3628 11.0234V14.9818C13.3628 16.5998 12.0641 17.8984 10.4461 17.8984C8.82809 17.8984 7.52942 16.5998 7.52942 14.9818V11.0234C7.52942 10.9005 7.61482 10.8151 7.73775 10.8151Z" fill="black"/>
</svg>
