<svg width="20" height="20" viewBox="0 0 20 20" fill="none" xmlns="http://www.w3.org/2000/svg">
<path d="M9.79177 2.08301C7.15276 2.08301 5.0001 4.23567 5.0001 6.87467C5.0001 7.5542 5.14235 8.20383 5.39886 8.79118C5.43105 8.86734 5.47802 8.93637 5.53707 8.99425C5.59611 9.05213 5.66606 9.09773 5.74285 9.12839C5.81964 9.15905 5.90175 9.17417 5.98443 9.17288C6.0671 9.17158 6.1487 9.1539 6.22449 9.12084C6.30028 9.08779 6.36876 9.04003 6.42597 8.98033C6.48317 8.92062 6.52796 8.85016 6.55775 8.77303C6.58753 8.69589 6.60171 8.61361 6.59947 8.53096C6.59723 8.4483 6.57861 8.36691 6.5447 8.2915C6.35538 7.85802 6.2501 7.38015 6.2501 6.87467C6.2501 4.91118 7.82827 3.33301 9.79177 3.33301C11.7553 3.33301 13.3334 4.91118 13.3334 6.87467C13.3334 7.11812 13.309 7.35481 13.2626 7.5835C13.2443 7.66467 13.2423 7.7487 13.2569 7.83064C13.2715 7.91258 13.3022 7.99078 13.3474 8.06067C13.3926 8.13056 13.4513 8.19072 13.5201 8.23762C13.5888 8.28452 13.6662 8.31722 13.7478 8.33381C13.8293 8.35039 13.9134 8.35052 13.995 8.33418C14.0766 8.31785 14.1541 8.28539 14.223 8.2387C14.2919 8.192 14.3508 8.13202 14.3962 8.06228C14.4416 7.99253 14.4726 7.91441 14.4874 7.83252C14.5502 7.52288 14.5834 7.20206 14.5834 6.87467C14.5834 4.23567 12.4308 2.08301 9.79177 2.08301ZM9.79177 4.99967C8.76364 4.99967 7.91677 5.84655 7.91677 6.87467V10.7329L7.55788 10.5848C6.03502 9.95819 4.30624 11.0149 4.16921 12.6559C4.15962 12.7694 4.18124 12.8834 4.23173 12.9855C4.28222 13.0877 4.35965 13.174 4.45567 13.2354L8.31553 15.6947C8.58387 15.8658 8.81324 16.0914 8.99017 16.3563L9.59727 17.2669H9.59808C9.91839 17.7463 10.4959 17.9939 11.0646 17.8936L13.2846 17.5021C14.0017 17.376 14.583 16.8422 14.7706 16.139C14.7709 16.1379 14.7712 16.1368 14.7714 16.1357L15.7634 12.3231C16.1059 11.0391 15.267 9.71581 13.9592 9.47803L11.6668 9.06136V6.87467C11.6668 5.84655 10.8199 4.99967 9.79177 4.99967ZM9.79177 6.24967C10.1445 6.24967 10.4168 6.52197 10.4168 6.87467V9.58301C10.4167 9.72947 10.4681 9.8713 10.562 9.98374C10.6558 10.0962 10.7862 10.1721 10.9303 10.1982L13.7355 10.7077C14.3435 10.8182 14.715 11.404 14.5558 12.0008C14.5552 12.0022 14.5547 12.0035 14.5541 12.0049L13.5629 15.8167C13.4997 16.0535 13.3085 16.2286 13.0681 16.2708V16.2716L10.8473 16.6631C10.7643 16.6777 10.6845 16.6434 10.6373 16.5728L10.0302 15.6629C9.75719 15.2539 9.40257 14.9054 8.98773 14.6408H8.98692L5.52175 12.4313C5.75618 11.8131 6.42244 11.4699 7.08181 11.7412L8.30414 12.2441C8.39905 12.2831 8.5021 12.2982 8.6042 12.2879C8.7063 12.2777 8.8043 12.2424 8.88956 12.1853C8.97481 12.1282 9.0447 12.051 9.09304 11.9605C9.14139 11.87 9.16671 11.769 9.16677 11.6663V6.87467C9.16677 6.52197 9.43906 6.24967 9.79177 6.24967Z" fill="#1565D8"/>
</svg>
