<svg width="33" height="32" viewBox="0 0 33 32" fill="none" xmlns="http://www.w3.org/2000/svg">
<path d="M30.2973 0H3.02852C1.72227 0 0.666016 1.03125 0.666016 2.30625V29.6875C0.666016 30.9625 1.72227 32 3.02852 32H30.2973C31.6035 32 32.666 30.9625 32.666 29.6938V2.30625C32.666 1.03125 31.6035 0 30.2973 0ZM10.1598 27.2687H5.40977V11.9937H10.1598V27.2687ZM7.78477 9.9125C6.25977 9.9125 5.02852 8.68125 5.02852 7.1625C5.02852 5.64375 6.25977 4.4125 7.78477 4.4125C9.30352 4.4125 10.5348 5.64375 10.5348 7.1625C10.5348 8.675 9.30352 9.9125 7.78477 9.9125ZM27.9348 27.2687H23.191V19.8438C23.191 18.075 23.1598 15.7937 20.7223 15.7937C18.2535 15.7937 17.8785 17.725 17.8785 19.7188V27.2687H13.141V11.9937H17.691V14.0813H17.7535C18.3848 12.8813 19.9348 11.6125 22.241 11.6125C27.0473 11.6125 27.9348 14.775 27.9348 18.8875V27.2687Z" fill="white"/>
</svg>
