<svg width="137" height="126" viewBox="0 0 137 126" fill="none" xmlns="http://www.w3.org/2000/svg">
<circle cx="68.0722" cy="62.6261" r="62.6261" fill="#1565D8"/>
<path d="M50.9051 11.1281C57.7195 4.2302 66.5072 3.60393 74.9118 4.23019C83.5252 4.75661 91.6575 8.3145 98.7279 13.1249C100.461 14.3956 102.712 16.0202 101.941 18.489C100.017 19.6598 97.8384 18.2439 95.8779 17.8536C89.4882 15.4847 82.5722 16.3016 75.9737 17.1275C74.5387 13.9531 71.8206 11.1281 67.5601 10.7832C63.2995 10.4383 60.2437 11.9109 57.6397 15.0763C47.9907 21.1006 44.5871 25.8656 40.1952 33.728C39.696 24.9331 44.9874 17.1185 50.9051 11.1281Z" fill="#F9FBFD"/>
<circle cx="66.0303" cy="20.4215" r="8.16862" fill="#F9FBFD"/>
<path d="M105.268 21.6956C114.649 24.148 119.585 31.4453 123.245 39.037C127.096 46.7596 128.081 55.5813 127.45 64.1097C127.217 66.2463 126.935 69.008 124.411 69.5742C122.435 68.4933 122.572 65.8989 121.93 64.0059C120.787 57.2879 116.621 51.7068 112.607 46.4053C114.638 43.5754 115.726 39.8089 113.894 35.9467C112.063 32.0846 109.259 30.1744 105.216 29.502C95.1745 24.1579 89.3461 23.5928 80.3411 23.7204C87.7081 18.8907 97.1215 19.5659 105.268 21.6956Z" fill="#F9FBFD"/>
<circle cx="104.784" cy="39.4378" r="8.16862" transform="rotate(60 104.784 39.4378)" fill="#F9FBFD"/>
<path d="M122.769 72.338C125.336 81.6883 121.485 89.6119 116.74 96.5773C111.977 103.774 104.83 109.037 97.1289 112.755C95.1616 113.621 92.6292 114.758 90.8769 112.856C90.8251 110.604 93.1404 109.425 94.4586 107.923C99.705 103.574 102.456 97.1757 105.04 91.0483C108.506 91.3928 112.312 90.4513 114.741 86.934C117.17 83.4168 117.422 80.034 115.983 76.1962C115.59 64.8278 113.165 59.4977 108.552 51.763C116.419 55.7281 120.541 64.2179 122.769 72.338Z" fill="#F9FBFD"/>
<circle cx="107.161" cy="80.7897" r="8.16862" transform="rotate(120 107.161 80.7897)" fill="#F9FBFD"/>
<path d="M15.5919 50.5976C13.0253 41.2472 16.8768 33.3237 21.6215 26.3582C26.384 19.162 33.5314 13.8982 41.2325 10.1803C43.1998 9.31429 45.7322 8.17727 47.4844 10.0798C47.5363 12.3316 45.221 13.5101 43.9028 15.0127C38.6564 19.3619 35.9058 25.7598 33.3218 31.8872C29.8552 31.5427 26.0496 32.4843 23.6207 36.0015C21.1917 39.5188 20.9391 42.9016 22.3784 46.7393C22.7711 58.1077 25.196 63.4379 29.809 71.1726C21.9428 67.2075 17.8208 58.7176 15.5919 50.5976Z" fill="#F9FBFD"/>
<circle cx="31.2006" cy="42.1458" r="8.16862" transform="rotate(-60 31.2006 42.1458)" fill="#F9FBFD"/>
<path d="M31.7318 103.282C22.3509 100.83 17.4146 93.5322 13.7547 85.9405C9.90391 78.2179 8.91898 69.3962 9.54972 60.8679C9.78337 58.7312 10.0649 55.9695 12.5886 55.4033C14.5647 56.4843 14.4276 59.0787 15.0699 60.9716C16.2132 67.6897 20.3787 73.2708 24.3932 78.5722C22.3615 81.4022 21.2741 85.1686 23.1057 89.0308C24.9372 92.893 27.7405 94.8031 31.7837 95.4755C41.8254 100.82 47.6539 101.385 56.6588 101.257C49.2919 106.087 39.8784 105.412 31.7318 103.282Z" fill="#F9FBFD"/>
<circle cx="32.2168" cy="85.5387" r="8.16862" transform="rotate(-120 32.2168 85.5387)" fill="#F9FBFD"/>
<path d="M83.866 113.816C77.0516 120.714 68.2639 121.34 59.8593 120.714C51.246 120.188 43.1137 116.63 36.0433 111.819C34.3097 110.549 32.0588 108.924 32.8303 106.455C34.7544 105.285 36.9327 106.7 38.8932 107.091C45.2829 109.46 52.199 108.643 58.7974 107.817C60.2324 110.991 62.9506 113.816 67.2111 114.161C71.4716 114.506 74.5275 113.033 77.1314 109.868C86.7804 103.844 90.184 99.0787 94.5759 91.2164C95.0751 100.011 89.7837 107.826 83.866 113.816Z" fill="#F9FBFD"/>
<circle cx="68.7416" cy="104.524" r="8.16862" transform="rotate(180 68.7416 104.524)" fill="#F9FBFD"/>
<path d="M60.4353 33.5084C61.6728 33.3065 62.9362 33.4824 64.1867 33.44C65.1115 34.3811 66.0363 35.332 67.0067 36.2307C67.036 38.6372 67.0491 41.0469 67.0295 43.4567C67.0751 43.8735 66.6811 44.1242 66.4531 44.4075C64.7077 46.1302 62.9721 47.8626 61.2559 49.6145C59.9827 49.7448 58.3968 49.2758 57.4134 50.3211C55.8959 51.7963 54.4045 53.3007 53.0238 54.9061C53.0173 55.3686 53.014 55.8342 53.0075 56.2966C52.1608 56.8079 51.6919 57.9997 52.4214 58.8106C53.1084 59.794 54.4078 59.3576 55.2772 58.8952C55.3358 58.1723 55.3326 57.4494 55.2674 56.7297C54.4436 56.7721 54.5836 55.9254 54.5413 55.3718C55.8959 53.9683 57.1822 52.4867 58.6508 51.2036C59.7482 50.9203 60.9173 51.1515 62.0407 51.145C62.6106 49.7155 64.0532 48.8655 65.0561 47.7519C65.6716 48.4487 66.3326 49.1065 67.0132 49.7415C67.0491 51.399 67.036 53.0565 67.036 54.7173C66.4792 55.2513 65.9223 55.7886 65.4567 56.4106C65.2678 56.0101 64.9943 55.6681 64.6914 55.3523C63.4638 55.349 62.2361 55.3262 61.0117 55.3555C60.6958 55.0299 60.4256 54.6131 59.9762 54.4665C59.1881 54.1637 58.5238 54.8182 57.8432 55.0918C57.8367 55.717 57.84 56.3422 57.853 56.9674C58.0842 57.1986 58.3154 57.4298 58.5499 57.6643C59.5854 57.8857 60.5102 57.5373 61.1778 56.7362C61.9691 56.7297 62.7409 57.0065 63.5387 56.9088C64.1183 56.7655 64.3463 57.3452 64.6165 57.7164C65.5055 58.3286 66.2187 59.1427 67.0067 59.8721C67.0751 61.9172 67.036 63.9654 67.0328 66.0137C65.5967 67.4726 64.115 68.8858 62.7018 70.3642C62.1905 70.3642 61.6793 70.3577 61.1713 70.3479C60.6665 69.6641 59.7385 69.0389 58.9146 69.6055C57.6576 70.1688 57.7846 72.2204 59.1197 72.5949C59.9697 72.9075 60.7252 72.3539 61.2429 71.7319C61.9105 71.7156 62.578 71.7124 63.2488 71.7156C63.9815 70.9602 64.724 70.2209 65.4892 69.5013C65.994 69.9995 66.4987 70.4977 67.0165 70.9862C67.0523 72.4092 67.0686 73.8323 67.0263 75.2586C65.7237 76.4634 64.5775 77.8377 63.213 78.9709C62.3338 79.137 61.4025 79.0783 60.5167 78.9709C59.7059 78.4466 59.1002 77.6585 58.4001 77.0008C57.7032 76.3886 58.2698 75.1739 57.4199 74.6627C56.4072 73.7834 54.6129 74.7083 54.8148 76.0564C54.8213 77.2189 56.0946 77.7269 57.0975 77.5576C58.0386 78.4922 58.9537 79.4528 59.9045 80.3744C61.1908 80.3711 62.4803 80.3646 63.7699 80.3776C64.3593 79.8078 64.8966 79.1793 65.5511 78.6811C66.235 78.6192 66.5932 79.3681 67.0719 79.7394C67.0328 82.465 67.2086 85.2199 66.997 87.9292C65.8702 89.1666 64.6165 90.2901 63.4638 91.508C62.1612 91.5177 60.8619 91.5243 59.5659 91.4982C58.1298 89.9872 56.6058 88.5642 55.1697 87.0565C55.1567 85.7311 55.1763 84.4058 55.1242 83.0837C56.1597 84.2527 57.3352 85.285 58.4099 86.4182C59.1328 86.4443 59.8589 86.4508 60.5851 86.4573C61.0703 87.0076 61.6956 87.5905 62.5031 87.3886C63.9327 87.203 64.2909 85.0343 62.9981 84.3863C62.1384 83.7936 61.1615 84.3993 60.6144 85.1092C60.0804 85.1124 59.5496 85.1157 59.0188 85.1189C56.7914 82.8883 54.5771 80.6479 52.3269 78.4433C52.0436 78.1633 51.7245 77.8246 51.8124 77.385C51.8417 75.3465 51.7343 73.3015 51.9166 71.2695C52.7796 70.4945 53.5546 69.625 54.4012 68.8305C54.9776 68.2215 56.0327 68.7556 56.5732 68.0652C57.5143 67.1437 56.8077 65.1931 55.4075 65.3266C54.1538 65.2094 53.5904 66.551 53.7239 67.6061C52.6558 68.7719 51.4607 69.8172 50.4252 71.0123C50.4545 71.8817 50.461 72.7512 50.461 73.6206C49.4808 73.5229 48.2174 73.956 47.5303 73.0345C46.8432 72.279 46.0356 71.631 45.4006 70.8299C45.1596 69.8758 45.4201 68.8598 45.3355 67.8829C45.7327 67.5214 46.2538 67.1697 46.2505 66.5673C46.4231 65.5415 45.4331 64.5223 44.3944 64.7567C43.577 64.8056 43.1862 65.6164 42.8704 66.2547C43.0527 66.9092 43.4174 67.4693 43.9385 67.9024C43.9613 69.0128 43.9482 70.12 43.9189 71.2304C45.0945 72.5134 46.3645 73.7085 47.5889 74.9492C48.5462 74.9492 49.5069 74.9525 50.4643 74.9492C50.4675 76.0955 50.4708 77.245 50.4447 78.3912C51.4086 79.4886 52.5125 80.4525 53.5188 81.5109C53.9063 81.8495 53.7923 82.4031 53.8249 82.8623C53.8021 84.4677 53.7076 86.0763 53.8607 87.6785C54.2677 88.0367 54.6683 88.4014 55.0688 88.7759C53.522 88.7433 51.972 88.8442 50.4284 88.7628C49.0998 87.9064 48.1718 86.5322 46.9702 85.5064C47.6279 85.4967 48.2923 85.4902 48.9566 85.4869C49.4157 86.0698 50.0702 86.6234 50.8713 86.415C52.2325 86.2587 52.6233 84.2462 51.5226 83.5103C50.9234 83.0511 50.1549 83.2888 49.5004 83.4582C49.4255 83.621 49.2724 83.9532 49.1975 84.1192C47.2958 84.1844 45.3452 84.3048 43.4663 84.0671C42.4568 83.1456 41.4506 82.1817 40.5811 81.1266C40.4606 79.0718 40.5746 77.0073 40.5355 74.9492C41.5124 75.9457 42.535 76.8933 43.476 77.9223C43.2123 79.0393 44.0459 80.4004 45.2996 80.1692C46.7878 80.0878 47.1134 77.779 45.8728 77.1506C45.4234 76.89 44.8861 76.9845 44.3944 76.9552C42.1214 74.7604 39.9364 72.4776 37.6732 70.273C37.6341 68.5634 37.6536 66.8538 37.6667 65.1442C39.6856 63.236 41.5646 61.1812 43.5965 59.2925C44.7688 59.0678 45.9835 59.2534 47.1753 59.2078C48.3476 60.442 49.5688 61.6306 50.7736 62.8387C53.5774 62.8517 56.3811 62.8582 59.1849 62.8355C59.8589 63.3695 60.4451 64.0371 60.3897 64.9586C60.4451 66.31 62.5324 66.6943 63.1935 65.5806C63.6722 65.0205 63.4214 64.2487 63.3693 63.5942C62.7441 63.1448 62.0016 62.9918 61.2559 62.8778C60.6633 62.5619 60.266 61.9693 59.7938 61.5069C56.9966 61.5036 54.1993 61.471 51.4021 61.5166C50.3308 60.5104 49.3082 59.4553 48.276 58.41C47.9959 58.1658 47.7191 57.8141 47.3023 57.8629C45.8955 57.8076 44.4855 57.8695 43.082 57.8629C42.2647 58.6868 41.4441 59.5042 40.6365 60.3378C39.5684 59.2958 38.5166 58.2374 37.468 57.1759C37.5852 55.4239 37.3736 53.6557 37.5918 51.9135C38.3961 50.8194 39.5163 49.9857 40.3988 48.947C40.4378 49.6731 40.2587 50.4709 40.5681 51.1515C41.6883 52.3564 42.9062 53.4668 44.0459 54.6521C45.8044 54.6619 47.5661 54.6424 49.3245 54.6749C51.1123 52.9556 52.8414 51.1743 54.5869 49.4159C54.6031 48.2371 54.5054 47.0517 54.6096 45.8794C55.6028 44.6257 56.85 43.5902 57.9442 42.4277C58.5043 41.708 59.4975 42.0271 60.2758 41.9946C60.6437 42.3723 60.9987 42.8803 61.5751 42.9259C62.3696 43.1115 62.959 42.4733 63.4312 41.9425C63.4084 41.4573 63.3889 40.9753 63.3758 40.4901C62.793 39.7346 61.8909 39.536 60.9922 39.7802C60.3279 41.086 58.7876 40.3696 57.6902 40.7571C56.2378 42.2714 54.7497 43.753 53.242 45.2151C53.2127 46.4167 53.1996 47.6183 53.2387 48.8167C51.7798 50.3537 50.2689 51.8419 48.7547 53.3235C47.3707 53.291 45.9867 53.2942 44.6028 53.304C43.6845 52.3857 42.7727 51.4511 41.812 50.5751C41.7827 47.9928 41.799 45.4105 41.799 42.8315C42.5187 42.1216 43.2286 41.4052 43.9385 40.6855C45.2052 40.7083 46.4752 40.705 47.7484 40.7018C47.7354 42.0662 47.7452 43.4306 47.7452 44.7951C47.2307 45.2933 46.7259 45.798 46.2212 46.2995C45.355 46.2767 44.3129 46.446 44.0166 47.4002C43.3751 48.833 45.342 50.243 46.5273 49.2661C47.2535 48.8623 47.1558 47.9798 47.146 47.2732C47.7843 46.6251 48.4323 45.9869 49.0705 45.3389C49.0543 43.0627 49.0933 40.7832 49.0575 38.507C50.1061 37.4682 51.1514 36.4326 52.1771 35.3743C53.6783 35.3646 55.1763 35.3873 56.6775 35.3841C56.1532 35.8204 55.6549 36.2861 55.1828 36.7746C54.4892 36.8169 53.6099 36.6573 53.1866 37.3575C52.2553 38.5786 53.6002 40.5845 55.0851 39.9398C56.0815 39.6434 56.2541 38.5363 56.2248 37.6473C57.6837 36.3219 58.9895 34.837 60.4353 33.5084Z" fill="white"/>
<path d="M71.4097 33.4289C72.6471 33.4908 73.9074 33.3051 75.1318 33.5298C76.6264 34.8389 77.8964 36.3922 79.3911 37.7045C79.3846 38.1279 79.3781 38.5544 79.3748 38.9778C79.72 39.3327 80.0717 39.6812 80.4299 40.0263C80.7099 40.0328 81.27 40.0524 81.5501 40.0589C82.0092 39.6551 82.7061 39.3067 82.6638 38.5903C82.8396 37.8446 82.2926 37.3007 81.8399 36.8058C81.3808 36.796 80.9184 36.783 80.4625 36.7732C79.9284 36.2359 79.3716 35.7018 78.6617 35.4153C80.2052 35.4772 81.7813 35.0669 83.3053 35.4153C84.4515 36.3499 85.3666 37.5417 86.5031 38.4991C86.4965 40.8046 86.4803 43.1134 86.5161 45.4189C87.1836 46.0083 87.8154 46.6368 88.4178 47.2913C88.4243 47.8091 88.4406 48.3301 88.4569 48.8479C88.9681 49.2842 89.5608 49.7239 90.2805 49.5513C91.5277 49.4927 92.1594 47.7309 91.2867 46.8615C90.8308 46.2558 90.02 46.334 89.3524 46.2623C88.8607 45.7543 88.3592 45.2561 87.8447 44.7741C87.8447 43.4227 87.848 42.0713 87.848 40.7199C89.1114 40.7297 90.3717 40.7297 91.6351 40.7232C92.3157 41.4559 93.1363 42.0713 93.7225 42.8887C93.7778 45.4612 93.7648 48.0403 93.729 50.6129C92.739 51.44 91.8631 52.3908 90.9513 53.2994C89.7432 53.2766 88.5318 53.3254 87.3269 53.2929C86.7082 53.3352 86.2979 52.7914 85.8909 52.4202C84.7283 51.2055 83.5202 50.0397 82.3447 48.8414C82.3642 47.6007 82.3609 46.36 82.3088 45.1226C80.7588 43.7451 79.3618 42.2049 77.8997 40.7427C76.8153 40.3715 75.2588 41.0944 74.6238 39.7854C73.6989 39.5314 72.7774 39.6909 72.1749 40.4822C72.1717 41.1823 72.0121 42.0355 72.6471 42.5305C73.4449 43.3153 74.7833 42.9343 75.2815 42.003C75.9263 42.0258 76.6395 41.8499 77.2419 42.1234C78.5151 43.312 79.6972 44.595 80.9705 45.7869C80.9998 46.8713 80.9477 47.9589 80.99 49.0433C80.9216 49.421 81.2342 49.675 81.4524 49.929C83.0285 51.5344 84.6567 53.0877 86.2328 54.6964C88.014 54.6638 89.7953 54.6931 91.5765 54.6833C92.7488 53.4133 93.9993 52.2183 95.2204 50.9939C95.2139 50.3198 95.2074 49.6522 95.2009 48.9814C96.0378 50.0462 97.2101 50.8408 97.9786 51.9415C98.0828 53.6934 97.9688 55.4551 98.0242 57.2103C97.0245 58.2491 95.9824 59.2455 94.9925 60.2941C94.123 59.5386 93.4359 58.565 92.4785 57.93C90.9415 57.6825 89.3329 57.6629 87.8056 57.9723C86.5193 59.073 85.4252 60.3853 84.1552 61.512C81.3677 61.4892 78.5835 61.4892 75.7993 61.5055C75.3239 61.9972 74.8452 62.4791 74.3535 62.9481C73.5459 62.8276 72.823 63.1467 72.1977 63.6221C72.1456 64.2604 71.9047 64.9963 72.3475 65.5564C72.7741 66.351 73.8846 66.3608 74.5912 65.9765C75.4639 65.4978 74.9982 64.3125 75.5844 63.6514C75.9231 63.277 76.3073 62.7885 76.8804 62.8569C79.5279 62.8373 82.1786 62.8536 84.826 62.8471C86.0211 61.6325 87.252 60.4504 88.4374 59.226C89.5966 59.2325 90.7592 59.2293 91.9217 59.213C93.9081 61.2319 95.9303 63.2118 97.92 65.2308C97.8841 66.8883 97.9167 68.549 97.9037 70.2131C95.6503 72.4274 93.4294 74.6743 91.202 76.918C90.4107 76.8659 89.4599 76.9636 89.0691 77.7646C88.636 78.3671 89.0072 79.077 89.1733 79.7022C90.0851 80.3763 91.3421 80.3111 92.052 79.3765C92.065 78.8979 92.0813 78.4159 92.0975 77.9372C93.0321 76.918 94.0611 75.9899 95.0055 74.9772C94.9762 77.0222 95.0641 79.0704 94.9729 81.1155C94.2175 82.0793 93.2438 82.8576 92.4167 83.7629C91.9738 84.3035 91.2053 84.0951 90.6029 84.1504C89.2189 84.0885 87.8219 84.2579 86.451 84.056C86.3402 83.9029 86.1188 83.6001 86.0114 83.447C85.321 83.2549 84.432 83.0432 83.8849 83.6489C83.136 84.3263 83.2597 85.6028 84.0608 86.1791C84.6469 86.5797 85.3829 86.3941 86.0211 86.2378C86.4184 85.1371 87.7177 85.619 88.6002 85.5148C87.4832 86.5276 86.4868 87.6706 85.3633 88.6703C83.7872 88.9568 82.133 88.7094 80.5308 88.7712C80.9151 88.4033 81.3059 88.0418 81.7064 87.6901C81.9897 85.7037 81.6217 83.6782 81.9311 81.7081C82.9471 80.5456 84.1292 79.5394 85.1777 78.4061C85.1191 77.2566 85.1191 76.1039 85.1289 74.9511C86.1025 74.9251 87.1022 75.0683 88.0629 74.8762C89.3329 73.7528 90.4921 72.5023 91.6742 71.2877C91.6449 70.1544 91.6319 69.0212 91.6644 67.8913C92.2669 67.5396 92.4981 66.8818 92.7195 66.2631C92.4395 65.3383 91.6286 64.472 90.5735 64.7651C89.0333 65.0028 88.9421 67.2074 90.1926 67.9043C90.2251 68.8779 90.2186 69.8549 90.2121 70.8318C89.3133 71.6947 88.4699 72.6195 87.5679 73.476C86.7831 73.6909 85.943 73.5737 85.1386 73.616C85.1289 72.7465 85.1224 71.8738 85.1549 71.0076C84.152 69.7767 82.8722 68.7998 81.8855 67.5656C81.7162 66.7711 81.7813 65.6216 80.7686 65.3969C79.5214 64.9019 78.2253 66.1361 78.6389 67.3963C78.7919 68.422 79.9512 68.5979 80.7979 68.51C81.7813 69.4576 82.7387 70.4312 83.7156 71.3886C83.6961 73.5867 83.7286 75.7847 83.6993 77.9861C81.3319 80.3274 78.9678 82.6753 76.646 85.0622C76.0794 85.085 75.516 85.1013 74.9526 85.1045C74.5293 84.5802 73.966 84.2286 73.3245 84.0397C72.6764 84.3458 71.8526 84.7073 71.794 85.5344C71.566 86.5601 72.5494 87.6087 73.5915 87.4003C74.1874 87.3742 74.5717 86.8858 74.9592 86.495C75.6398 86.4885 76.3236 86.5015 77.0074 86.5276C78.1765 85.453 79.3064 84.3295 80.3908 83.167C80.4104 84.4663 80.4039 85.7688 80.3941 87.0681C78.9613 88.5693 77.4308 89.9761 76.0142 91.4968C74.7247 91.5229 73.4384 91.5131 72.1522 91.5066C71.1003 90.5004 70.0974 89.4518 69.0521 88.4456C68.7948 88.159 68.4106 87.8822 68.4855 87.4459C68.4887 84.8733 68.4627 82.3008 68.5148 79.7282C68.9641 79.3082 69.4103 78.8816 69.8564 78.455C70.4947 79.0802 71.1362 79.7119 71.7614 80.36C73.0607 80.386 74.3665 80.3893 75.6691 80.386C76.6134 79.4449 77.548 78.4941 78.5021 77.5627C79.4986 77.6995 80.8369 77.2273 80.7588 76.0225C80.9379 74.6939 79.1404 73.7365 78.1537 74.6613C77.2028 75.2279 77.8248 76.6086 76.9781 77.2306C76.3171 77.7809 75.8058 78.5201 75.0764 78.9858C74.1809 79.0672 73.2463 79.1486 72.3638 78.963C70.9961 77.8395 69.8564 76.4621 68.5473 75.2702C68.5017 73.8374 68.5083 72.4046 68.5669 70.9751C69.0846 70.4931 69.5894 69.9981 70.0909 69.4999C70.8529 70.2098 71.5855 70.9523 72.3085 71.7077C72.9793 71.7077 73.6501 71.7143 74.3242 71.7305C74.8126 72.2874 75.4444 72.854 76.2552 72.6553C77.0823 72.6032 77.3819 71.7566 77.7076 71.1379C77.4177 70.4443 77.1051 69.5813 76.2585 69.4315C75.4606 69.2101 74.8419 69.806 74.3698 70.3531C73.8031 70.3629 73.2398 70.3694 72.6797 70.2847C71.4585 68.7086 69.801 67.52 68.5734 65.957C68.4561 63.9315 68.5441 61.8962 68.5669 59.8708C69.6317 58.8418 70.6672 57.7867 71.7191 56.7414C72.6211 56.7349 73.5231 56.7284 74.4284 56.7251C75.0373 57.5327 76.2357 58.0732 77.1182 57.3503C78.1276 56.6241 77.8346 54.8429 76.6297 54.501C75.783 54.1102 75.0145 54.7778 74.4772 55.3639C73.4254 55.3932 72.3703 55.3118 71.3218 55.3997C70.8463 55.5951 70.537 56.0413 70.1723 56.3832C69.6545 55.8166 69.1172 55.276 68.5538 54.755C68.5083 53.0812 68.531 51.4042 68.5506 49.7304C69.2442 49.1051 69.9052 48.4441 70.5435 47.7603C71.667 48.8577 72.7546 49.9909 73.8911 51.0753C74.8843 51.0329 75.884 51.0264 76.8804 51.0557C78.1244 52.4918 79.5311 53.7781 80.8728 55.123C81.2049 55.4453 81.0323 55.9631 81.0942 56.3767C80.8337 56.5981 80.5764 56.8163 80.3192 57.0377C80.2768 57.7541 80.1108 58.6464 80.8239 59.1088C81.7324 59.9164 83.2532 59.327 83.4974 58.1709C83.7189 57.3471 83.0936 56.6958 82.5465 56.1943C82.5498 55.7482 82.5596 55.3021 82.5726 54.8592C80.7848 53.2636 79.2055 51.4465 77.4405 49.8313C76.4799 49.3982 75.3434 49.6913 74.3144 49.6066C72.4029 47.6463 70.4328 45.7445 68.5278 43.7777C68.5571 41.254 68.5148 38.727 68.5669 36.2033C69.5666 35.3339 70.4686 34.357 71.4097 33.4289Z" fill="white"/>
</svg>
