<svg width="52" height="51" viewBox="0 0 52 51" fill="none" xmlns="http://www.w3.org/2000/svg">
<g clip-path="url(#clip0_1162_6251)">
<path d="M50.3338 25.1495C50.3338 29.8131 49.0069 34.3805 46.508 38.3181C44.0091 42.2558 40.4414 45.4011 36.2216 47.3868L35.3845 45.6078C39.2667 43.781 42.549 40.8873 44.8479 37.2646C47.1469 33.642 48.3677 29.4401 48.3677 25.1495H50.3338Z" fill="#1565D8"/>
<path d="M33.3513 1.77537C37.7867 3.21651 41.7205 5.8899 44.6932 9.48329C47.6659 13.0767 49.5548 17.4417 50.1393 22.0686L48.1887 22.315C47.651 18.0583 45.9132 14.0424 43.1783 10.7365C40.4434 7.43061 36.8243 4.97109 32.7438 3.64525L33.3513 1.77537Z" fill="#1565D8"/>
<path d="M5.87356 10.7028C8.61478 6.92984 12.3729 4.01473 16.7091 2.29793C21.0452 0.581134 25.7803 0.133531 30.3613 1.00741L29.9929 2.93868C25.7784 2.13472 21.4221 2.54651 17.4328 4.12596C13.4436 5.70542 9.98609 8.38732 7.46417 11.8584L5.87356 10.7028Z" fill="#E3E7EC"/>
<path d="M5.87378 39.5945C3.13257 35.8215 1.52146 31.3465 1.22862 26.692C0.935794 22.0376 1.97333 17.3959 4.22005 13.3092L5.94296 14.2564C3.87597 18.0162 2.92144 22.2865 3.19085 26.5686C3.46025 30.8507 4.94247 34.9677 7.46439 38.4388L5.87378 39.5945Z" fill="#E3E7EC"/>
<path d="M33.3505 48.522C28.9151 49.9631 24.1612 50.1125 19.6441 48.9527C15.127 47.7929 11.0331 45.3718 7.84065 41.9722L9.27387 40.6263C12.2109 43.754 15.9773 45.9814 20.1331 47.0484C24.2888 48.1154 28.6624 47.978 32.7429 46.6521L33.3505 48.522Z" fill="#E3E7EC"/>
<rect x="4.9873" y="4.37988" width="41.5254" height="41.5254" rx="20.7627" fill="#F4EDE5"/>
<path d="M31.1824 36.4428L33.0106 36.7922C35.0503 37.212 36.9474 35.734 37.0859 33.6943L37.5035 29.1232L39.5419 28.2774C40.245 27.9954 40.5249 27.1517 40.1023 26.4486L37.4965 22.092C37.0697 16.749 34.0413 11.5486 26.2367 11.5557C18.5023 11.5634 14.2884 16.77 14.2941 22.8169C14.2969 25.4185 15.2138 28.3709 16.6214 30.2679C17.8884 32.0243 18.5234 34.133 18.5255 36.2424L18.5276 38.2111C18.5283 38.9881 19.1583 39.6167 19.9352 39.616L29.779 39.6068C30.5559 39.6061 31.1845 38.9761 31.1838 38.1992L31.1824 36.4428Z" fill="url(#paint0_radial_1162_6251)"/>
<path d="M34.5623 19.7049C34.0596 19.7696 33.5435 19.5341 33.2735 19.0679C33.0035 18.6017 33.0569 18.0371 33.3628 17.6328C32.8861 17.1807 32.3053 16.839 31.6584 16.6484C31.463 17.1174 31.001 17.4472 30.4617 17.4479C29.9224 17.4486 29.459 17.1188 29.2629 16.6505C28.616 16.8425 28.0366 17.1856 27.5606 17.6384C27.8679 18.042 27.922 18.6059 27.6527 19.0728C27.3834 19.5397 26.868 19.7759 26.3653 19.7127C26.2901 20.0291 26.2458 20.3574 26.2465 20.697C26.2465 21.0366 26.2915 21.365 26.3674 21.6807C26.8701 21.616 27.3862 21.8516 27.6562 22.3177C27.9262 22.7839 27.8728 23.3485 27.5669 23.7528C28.0437 24.2049 28.6244 24.5466 29.2713 24.7372C29.4668 24.2682 29.9287 23.9384 30.468 23.9377C31.0073 23.937 31.4707 24.2661 31.6669 24.7351C32.3137 24.5431 32.8931 24.2 33.3691 23.7472C33.0619 23.3436 33.0077 22.7797 33.277 22.3128C33.5463 21.8459 34.0617 21.6097 34.5644 21.673C34.6397 21.3566 34.684 21.0282 34.6833 20.6886C34.6826 20.3497 34.6383 20.0213 34.5623 19.7049ZM30.4666 22.8022C29.3015 22.8036 28.3565 21.86 28.3551 20.6949C28.3537 19.5298 29.2973 18.5848 30.4624 18.5834C31.6275 18.582 32.5725 19.5256 32.5739 20.6907C32.5746 21.8558 31.631 22.8008 30.4666 22.8022Z" fill="#AD3F16"/>
<path d="M30.4645 21.748C31.047 21.748 31.5192 21.2758 31.5192 20.6934C31.5192 20.1109 31.047 19.6387 30.4645 19.6387C29.882 19.6387 29.4098 20.1109 29.4098 20.6934C29.4098 21.2758 29.882 21.748 30.4645 21.748Z" fill="#AD3F16"/>
<path d="M26.8111 23.064C26.224 23.1393 25.6221 22.865 25.3078 22.3201C24.9928 21.7759 25.0547 21.1178 25.4126 20.646C24.8564 20.1186 24.1786 19.72 23.4241 19.4971C23.1963 20.0441 22.657 20.4294 22.0277 20.4301C21.3977 20.4308 20.8584 20.0469 20.6292 19.4999C19.8748 19.7235 19.1984 20.1243 18.6429 20.6523C19.0015 21.1234 19.0648 21.7815 18.7505 22.3264C18.4369 22.8714 17.835 23.147 17.2486 23.0732C17.1607 23.4423 17.1094 23.8255 17.1094 24.2214C17.1101 24.6172 17.1621 25.0004 17.2507 25.3689C17.8378 25.2936 18.4397 25.5679 18.754 26.1128C19.069 26.657 19.0071 27.3151 18.6492 27.7869C19.2054 28.3143 19.8832 28.7129 20.6377 28.9358C20.8655 28.3888 21.4048 28.0035 22.0341 28.0028C22.6641 28.0021 23.2034 28.386 23.4326 28.933C24.187 28.7094 24.8634 28.3086 25.4189 27.7806C25.0603 27.3095 24.997 26.6514 25.3113 26.1064C25.6249 25.5615 26.2268 25.2859 26.8132 25.3597C26.9011 24.9906 26.9524 24.6074 26.9524 24.2115C26.9517 23.8164 26.8997 23.4332 26.8111 23.064ZM22.0327 27.0296C20.4795 27.0311 19.2188 25.7732 19.2173 24.22C19.2159 22.6668 20.4738 21.4061 22.027 21.4046C23.5802 21.4032 24.8409 22.6611 24.8423 24.2143C24.8445 25.7675 23.5859 27.0275 22.0327 27.0296Z" fill="#AD3F16"/>
<path d="M22.0305 25.624C22.8072 25.624 23.4368 24.9944 23.4368 24.2178C23.4368 23.4411 22.8072 22.8115 22.0305 22.8115C21.2539 22.8115 20.6243 23.4411 20.6243 24.2178C20.6243 24.9944 21.2539 25.624 22.0305 25.624Z" fill="#AD3F16"/>
</g>
<defs>
<radialGradient id="paint0_radial_1162_6251" cx="0" cy="0" r="1" gradientUnits="userSpaceOnUse" gradientTransform="translate(27.2829 25.6006) scale(13.5239)">
<stop stop-color="#FFCF54"/>
<stop offset="0.261" stop-color="#FDCB4D"/>
<stop offset="0.639" stop-color="#F7C13A"/>
<stop offset="1" stop-color="#F0B421"/>
</radialGradient>
<clipPath id="clip0_1162_6251">
<rect width="50" height="50" fill="white" transform="translate(0.75 0.142578)"/>
</clipPath>
</defs>
</svg>
