<svg width="52" height="51" viewBox="0 0 52 51" fill="none" xmlns="http://www.w3.org/2000/svg">
<g clip-path="url(#clip0_1162_6267)">
<path d="M50.3338 25.1495C50.3338 29.8131 49.0069 34.3805 46.508 38.3181C44.0091 42.2558 40.4414 45.4011 36.2216 47.3868L35.3845 45.6078C39.2667 43.781 42.549 40.8873 44.8479 37.2646C47.1469 33.642 48.3677 29.4401 48.3677 25.1495H50.3338Z" fill="#E6C411"/>
<path d="M33.3513 1.77537C37.7867 3.21651 41.7205 5.8899 44.6932 9.48329C47.6659 13.0767 49.5548 17.4417 50.1393 22.0686L48.1887 22.315C47.651 18.0583 45.9132 14.0424 43.1783 10.7365C40.4434 7.43061 36.8243 4.97109 32.7438 3.64525L33.3513 1.77537Z" fill="#E6C411"/>
<path d="M5.87356 10.7028C8.61478 6.92984 12.3729 4.01473 16.7091 2.29793C21.0452 0.581134 25.7803 0.133531 30.3613 1.00741L29.9929 2.93868C25.7784 2.13472 21.4221 2.54651 17.4328 4.12596C13.4436 5.70542 9.98609 8.38732 7.46417 11.8584L5.87356 10.7028Z" fill="#E6C411"/>
<path d="M5.87378 39.5945C3.13257 35.8215 1.52146 31.3465 1.22862 26.692C0.935794 22.0376 1.97333 17.3959 4.22005 13.3092L5.94296 14.2564C3.87597 18.0162 2.92144 22.2865 3.19085 26.5686C3.46025 30.8507 4.94247 34.9677 7.46439 38.4388L5.87378 39.5945Z" fill="#E6C411"/>
<path d="M33.3504 48.522C28.915 49.9631 24.1612 50.1125 19.644 48.9527C15.1269 47.7929 11.0331 45.3718 7.84059 41.9722L9.27381 40.6263C12.2109 43.754 15.9773 45.9814 20.133 47.0484C24.2887 48.1154 28.6623 47.978 32.7428 46.6521L33.3504 48.522Z" fill="#E6C411"/>
<rect x="4.9873" y="4.37988" width="41.5254" height="41.5254" rx="20.7627" fill="#EEE5F4"/>
<path d="M29.7656 18.6113H24.8438C24.4556 18.6113 24.1406 18.2963 24.1406 17.9082C24.1406 17.5201 24.4556 17.2051 24.8438 17.2051H29.0625V12.9863C29.0625 12.5982 29.3768 12.2832 29.7656 12.2832C30.1545 12.2832 30.4688 12.5982 30.4688 12.9863V17.9082C30.4688 18.2963 30.1545 18.6113 29.7656 18.6113Z" fill="#64717C"/>
<path d="M31.875 27.752C31.4862 27.752 31.1719 27.4377 31.1719 27.0488V19.3145C31.1719 18.927 30.8569 18.6113 30.4688 18.6113H29.0625C28.6737 18.6113 28.3594 18.2963 28.3594 17.9082C28.3594 17.5201 28.6737 17.2051 29.0625 17.2051H30.4688C31.6317 17.2051 32.5781 18.1515 32.5781 19.3145V27.0488C32.5781 27.4377 32.2638 27.752 31.875 27.752Z" fill="#64717C"/>
<path d="M28.3594 25.6426H25.5469C25.1587 25.6426 24.8438 25.3276 24.8438 24.9395C24.8438 24.5513 25.1587 24.2363 25.5469 24.2363H27.6562V21.4238C27.6562 21.0357 27.9705 20.7207 28.3594 20.7207C28.7482 20.7207 29.0625 21.0357 29.0625 21.4238V24.9395C29.0625 25.3276 28.7482 25.6426 28.3594 25.6426Z" fill="#64717C"/>
<path d="M29.0625 37.5957C28.6737 37.5957 28.3594 37.2814 28.3594 36.8926V34.7832C28.3594 34.3951 28.0444 34.0801 27.6562 34.0801H24.1406C23.7525 34.0801 23.4375 33.7658 23.4375 33.377C23.4375 32.9881 23.7525 32.6738 24.1406 32.6738H27.6562C28.8192 32.6738 29.7656 33.6202 29.7656 34.7832V36.8926C29.7656 37.2814 29.4513 37.5957 29.0625 37.5957Z" fill="#64717C"/>
<path d="M33.9844 31.2676H29.7656C28.6027 31.2676 27.6562 30.3212 27.6562 29.1582V24.9395C27.6562 24.5513 27.9705 24.2363 28.3594 24.2363C28.7482 24.2363 29.0625 24.5513 29.0625 24.9395V29.1582C29.0625 29.5463 29.3775 29.8613 29.7656 29.8613H33.9844C34.3725 29.8613 34.6875 29.5463 34.6875 29.1582V25.6426C34.6875 24.4796 35.6339 23.5332 36.7969 23.5332H37.5C37.8888 23.5332 38.2031 23.8482 38.2031 24.2363C38.2031 24.6245 37.8888 24.9395 37.5 24.9395H36.7969C36.4087 24.9395 36.0938 25.2552 36.0938 25.6426V29.1582C36.0938 30.3212 35.1473 31.2676 33.9844 31.2676Z" fill="#64717C"/>
<path d="M29.0625 36.1895C29.8387 36.1895 30.4688 36.8195 30.4688 37.5957C30.4688 38.372 29.8387 39.002 29.0625 39.002C28.2862 39.002 27.6562 38.372 27.6562 37.5957C27.6562 36.8195 28.2862 36.1895 29.0625 36.1895Z" fill="url(#paint0_linear_1162_6267)"/>
<path d="M38.2031 25.6426C38.9794 25.6426 39.6094 25.0126 39.6094 24.2363C39.6094 23.4601 38.9794 22.8301 38.2031 22.8301C37.4269 22.8301 36.7969 23.4601 36.7969 24.2363C36.7969 25.0126 37.4269 25.6426 38.2031 25.6426Z" fill="url(#paint1_linear_1162_6267)"/>
<path d="M31.875 28.4551C32.6512 28.4551 33.2812 27.8251 33.2812 27.0488C33.2812 26.2726 32.6512 25.6426 31.875 25.6426C31.0987 25.6426 30.4688 26.2726 30.4688 27.0488C30.4688 27.8251 31.0987 28.4551 31.875 28.4551Z" fill="url(#paint2_linear_1162_6267)"/>
<path d="M28.3594 22.8301C29.1356 22.8301 29.7656 22.2001 29.7656 21.4238C29.7656 20.6476 29.1356 20.0176 28.3594 20.0176C27.5831 20.0176 26.9531 20.6476 26.9531 21.4238C26.9531 22.2001 27.5831 22.8301 28.3594 22.8301Z" fill="url(#paint3_linear_1162_6267)"/>
<path d="M29.7656 15.0957C30.5419 15.0957 31.1719 14.4657 31.1719 13.6895C31.1719 12.9132 30.5419 12.2832 29.7656 12.2832C28.9894 12.2832 28.3594 12.9132 28.3594 13.6895C28.3594 14.4657 28.9894 15.0957 29.7656 15.0957Z" fill="url(#paint4_linear_1162_6267)"/>
<path d="M35.3906 34.7832H33.2812C32.1183 34.7832 31.1719 33.8368 31.1719 32.6738V30.5645C31.1719 30.1756 31.4862 29.8613 31.875 29.8613C32.2638 29.8613 32.5781 30.1756 32.5781 30.5645V32.6738C32.5781 33.062 32.8931 33.377 33.2812 33.377H35.3906C35.7795 33.377 36.0938 33.6913 36.0938 34.0801C36.0938 34.4689 35.7795 34.7832 35.3906 34.7832Z" fill="#64717C"/>
<path d="M35.3906 32.6738C36.1669 32.6738 36.7969 33.3038 36.7969 34.0801C36.7969 34.8563 36.1669 35.4863 35.3906 35.4863C34.6144 35.4863 33.9844 34.8563 33.9844 34.0801C33.9844 33.3038 34.6144 32.6738 35.3906 32.6738Z" fill="url(#paint5_linear_1162_6267)"/>
<path d="M35.3906 21.4238H31.875C31.4862 21.4238 31.1719 21.1088 31.1719 20.7207C31.1719 20.3326 31.4862 20.0176 31.875 20.0176H35.3906C35.7795 20.0176 36.0938 20.3326 36.0938 20.7207C36.0938 21.1088 35.7795 21.4238 35.3906 21.4238Z" fill="#64717C"/>
<path d="M35.3906 19.3145C36.1669 19.3145 36.7969 19.9445 36.7969 20.7207C36.7969 21.497 36.1669 22.127 35.3906 22.127C34.6144 22.127 33.9844 21.497 33.9844 20.7207C33.9844 19.9445 34.6144 19.3145 35.3906 19.3145Z" fill="url(#paint6_linear_1162_6267)"/>
<path d="M26.25 15.623C26.25 13.7788 24.7545 12.2832 22.9102 12.2832C21.2135 12.2832 19.8277 13.553 19.6139 15.1913C16.9905 15.668 15 17.9595 15 20.7207C15 20.9169 15.0105 21.1102 15.0295 21.3015C13.7126 22.5791 12.8906 24.365 12.8906 26.3457C12.8906 28.3292 13.7154 30.118 15.0366 31.3962C15.0141 31.5847 15 31.7759 15 31.9707C15 34.5477 16.9821 36.6591 19.5042 36.8715C20.0421 38.1238 21.2852 39.002 22.7344 39.002C24.6757 39.002 26.25 37.4277 26.25 35.4863C26.25 35.217 26.25 16.1068 26.25 15.623Z" fill="url(#paint7_linear_1162_6267)"/>
<path d="M21.4146 22.127H21.416C21.7472 22.127 22.0179 21.8893 22.0973 21.568C22.2942 20.7706 22.9088 20.2665 23.588 20.0893C23.9065 20.0056 24.1406 19.7377 24.1406 19.4087V19.2273C24.1406 18.8961 23.903 18.6254 23.5816 18.5459C22.7843 18.3491 22.2802 17.7345 22.103 17.0553C22.0193 16.7361 21.7514 16.502 21.4223 16.502H21.4146C20.9541 16.502 20.6208 16.9393 20.7347 17.3858C20.9351 18.174 21.3998 18.8455 22.0277 19.3145C21.3991 19.7827 20.9351 20.4542 20.7347 21.2431C20.6208 21.6896 20.9541 22.127 21.4146 22.127Z" fill="url(#paint8_linear_1162_6267)"/>
<path d="M22.6725 25.6426C22.3259 25.6426 22.0432 25.9006 21.9799 26.2416C21.7838 27.302 21.0609 27.7154 20.4049 27.7449C19.6603 27.3898 18.8187 27.162 17.8835 27.0812C17.4701 27.046 17.1094 27.3673 17.1094 27.7822C17.1094 28.1387 17.3766 28.4516 17.7323 28.4776C19.6772 28.621 21.0525 29.4577 21.833 30.9716C21.9926 31.2802 22.3688 31.4082 22.6929 31.2837C23.088 31.1319 23.2596 30.6643 23.0606 30.2902C22.7421 29.6919 22.3413 29.173 21.8702 28.7335C22.5945 28.3102 23.1816 27.5614 23.3721 26.4455C23.4438 26.0244 23.0993 25.6426 22.6725 25.6426Z" fill="url(#paint9_linear_1162_6267)"/>
</g>
<defs>
<linearGradient id="paint0_linear_1162_6267" x1="28.0683" y1="36.6015" x2="30.0567" y2="38.5899" gradientUnits="userSpaceOnUse">
<stop stop-color="#4FE5FF"/>
<stop offset="1" stop-color="#2EB7ED"/>
</linearGradient>
<linearGradient id="paint1_linear_1162_6267" x1="37.2089" y1="23.2421" x2="39.1973" y2="25.2305" gradientUnits="userSpaceOnUse">
<stop stop-color="#4FE5FF"/>
<stop offset="1" stop-color="#2EB7ED"/>
</linearGradient>
<linearGradient id="paint2_linear_1162_6267" x1="30.8808" y1="26.0546" x2="32.8692" y2="28.043" gradientUnits="userSpaceOnUse">
<stop stop-color="#4FE5FF"/>
<stop offset="1" stop-color="#2EB7ED"/>
</linearGradient>
<linearGradient id="paint3_linear_1162_6267" x1="27.3652" y1="20.4296" x2="29.3536" y2="22.418" gradientUnits="userSpaceOnUse">
<stop stop-color="#4FE5FF"/>
<stop offset="1" stop-color="#2EB7ED"/>
</linearGradient>
<linearGradient id="paint4_linear_1162_6267" x1="28.7714" y1="12.6952" x2="30.7598" y2="14.6837" gradientUnits="userSpaceOnUse">
<stop stop-color="#4FE5FF"/>
<stop offset="1" stop-color="#2EB7ED"/>
</linearGradient>
<linearGradient id="paint5_linear_1162_6267" x1="34.3964" y1="33.0859" x2="36.3848" y2="35.0743" gradientUnits="userSpaceOnUse">
<stop stop-color="#4FE5FF"/>
<stop offset="1" stop-color="#2EB7ED"/>
</linearGradient>
<linearGradient id="paint6_linear_1162_6267" x1="34.3964" y1="19.7265" x2="36.3848" y2="21.7149" gradientUnits="userSpaceOnUse">
<stop stop-color="#4FE5FF"/>
<stop offset="1" stop-color="#2EB7ED"/>
</linearGradient>
<linearGradient id="paint7_linear_1162_6267" x1="17.1445" y1="13.5179" x2="25.7684" y2="41.0649" gradientUnits="userSpaceOnUse">
<stop stop-color="#FFA1A6"/>
<stop offset="1" stop-color="#F24472"/>
</linearGradient>
<linearGradient id="paint8_linear_1162_6267" x1="19.7855" y1="13.7112" x2="29.8106" y2="38.8241" gradientUnits="userSpaceOnUse">
<stop stop-color="#FF6181"/>
<stop offset="1" stop-color="#C41F40"/>
</linearGradient>
<linearGradient id="paint9_linear_1162_6267" x1="15.6743" y1="15.6125" x2="26.0468" y2="41.5944" gradientUnits="userSpaceOnUse">
<stop stop-color="#FF6181"/>
<stop offset="1" stop-color="#C41F40"/>
</linearGradient>
<clipPath id="clip0_1162_6267">
<rect width="50" height="50" fill="white" transform="translate(0.75 0.142578)"/>
</clipPath>
</defs>
</svg>
